HIERARCHY
ROOT Hips
{
    OFFSET 0.000000 0.000000 0.000000
    CHANNELS 6 Xposition Yposition Zposition Zrotation Yrotation Xrotation
    JOINT Chest
    {
        OFFSET 0.000000 1.634758 -0.000000
        CHANNELS 3 Zrotation Yrotation Xrotation
        JOINT Chest2
        {
            OFFSET 0.000000 2.197341 0.000000
            CHANNELS 3 Zrotation Yrotation Xrotation
            JOINT Neck
            {
                OFFSET 0.000000 0.961544 0.000000
                CHANNELS 3 Zrotation Yrotation Xrotation
                JOINT Head
                {
                    OFFSET 0.000000 0.632542 -0.032565
                    CHANNELS 3 Zrotation Yrotation Xrotation
                    End Site
                    {
                        OFFSET -0.000001 0.439502 2.922845
                    }
                }
            }
            JOINT LeftCollar
            {
                OFFSET 0.167536 0.778237 -0.168280
                CHANNELS 3 Zrotation Yrotation Xrotation
                JOINT LeftShoulder
                {
                    OFFSET 0.831514 -0.002900 0.006458
                    CHANNELS 3 Zrotation Yrotation Xrotation
                    JOINT LeftElbow
                    {
                        OFFSET 2.272872 -0.026639 0.059314
                        CHANNELS 3 Zrotation Yrotation Xrotation
                        JOINT LeftWrist
                        {
                            OFFSET 2.081982 -0.024402 0.054333
                            CHANNELS 3 Zrotation Yrotation Xrotation
                            JOINT LeftHandThumb1
                            {
                                OFFSET 0.218903 -0.128645 0.283837
                                CHANNELS 3 Zrotation Yrotation Xrotation
                                JOINT LeftHandThumb2
                                {
                                    OFFSET 0.137157 -0.025101 0.077902
                                    CHANNELS 3 Zrotation Yrotation Xrotation
                                    JOINT LeftHandThumb3
                                    {
                                        OFFSET 0.163592 -0.061323 0.054922
                                        CHANNELS 3 Zrotation Yrotation Xrotation
                                        End Site
                                        {
                                            OFFSET 0.242814 -0.064473 0.093387
                                        }
                                    }
                                }
                            }
                            JOINT LeftHandFore1
                            {
                                OFFSET 0.767340 -0.016076 0.196678
                                CHANNELS 3 Zrotation Yrotation Xrotation
                                JOINT LeftHandFore2
                                {
                                    OFFSET 0.194910 -0.087741 0.036151
                                    CHANNELS 3 Zrotation Yrotation Xrotation
                                    JOINT LeftHandFore3
                                    {
                                        OFFSET 0.092875 -0.089218 0.013319
                                        CHANNELS 3 Zrotation Yrotation Xrotation
                                        End Site
                                        {
                                            OFFSET 0.097281 -0.166262 0.016137
                                        }
                                    }
                                }
                            }
                            JOINT LeftHandMiddle1
                            {
                                OFFSET 0.709887 -0.008320 0.018526
                                CHANNELS 3 Zrotation Yrotation Xrotation
                                JOINT LeftHandMiddle2
                                {
                                    OFFSET 0.224654 -0.096229 0.018290
                                    CHANNELS 3 Zrotation Yrotation Xrotation
                                    JOINT LeftHandMiddle3
                                    {
                                        OFFSET 0.112279 -0.093619 0.003456
                                        CHANNELS 3 Zrotation Yrotation Xrotation
                                        End Site
                                        {
                                            OFFSET 0.124215 -0.200489 0.002258
                                        }
                                    }
                                }
                            }
                            JOINT LeftHandRing1
                            {
                                OFFSET 0.743817 -0.005823 -0.153668
                                CHANNELS 3 Zrotation Yrotation Xrotation
                                JOINT LeftHandRing2
                                {
                                    OFFSET 0.318812 -0.149696 -0.026139
                                    CHANNELS 3 Zrotation Yrotation Xrotation
                                    JOINT LeftHandRing3
                                    {
                                        OFFSET 0.098079 -0.093764 -0.013936
                                        CHANNELS 3 Zrotation Yrotation Xrotation
                                        End Site
                                        {
                                            OFFSET 0.052405 -0.107176 -0.013671
                                        }
                                    }
                                }
                            }
                            JOINT LeftHandLittle1
                            {
                                OFFSET 0.689408 -0.053302 -0.308304
                                CHANNELS 3 Zrotation Yrotation Xrotation
                                JOINT LeftHandLittle2
                                {
                                    OFFSET 0.175349 -0.075526 -0.040032
                                    CHANNELS 3 Zrotation Yrotation Xrotation
                                    JOINT LeftHandLittle3
                                    {
                                        OFFSET 0.079813 -0.085301 -0.029154
                                        CHANNELS 3 Zrotation Yrotation Xrotation
                                        End Site
                                        {
                                            OFFSET 0.098803 -0.155258 -0.049208
                                        }
                                    }
                                }
                            }
                        }
                    }
                }
            }
            JOINT RightCollar
            {
                OFFSET -0.167536 0.778237 -0.168280
                CHANNELS 3 Zrotation Yrotation Xrotation
                JOINT RightShoulder
                {
                    OFFSET -0.831514 -0.002900 0.006457
                    CHANNELS 3 Zrotation Yrotation Xrotation
                    JOINT RightElbow
                    {
                        OFFSET -2.272872 -0.026639 0.059313
                        CHANNELS 3 Zrotation Yrotation Xrotation
                        JOINT RightWrist
                        {
                            OFFSET -2.081982 -0.024402 0.054331
                            CHANNELS 3 Zrotation Yrotation Xrotation
                            JOINT RightHandThumb1
                            {
                                OFFSET -0.218911 -0.128571 0.283837
                                CHANNELS 3 Zrotation Yrotation Xrotation
                                JOINT RightHandThumb2
                                {
                                    OFFSET -0.137157 -0.025101 0.077902
                                    CHANNELS 3 Zrotation Yrotation Xrotation
                                    JOINT RightHandThumb3
                                    {
                                        OFFSET -0.167455 -0.054447 0.050337
                                        CHANNELS 3 Zrotation Yrotation Xrotation
                                        End Site
                                        {
                                            OFFSET -0.236691 -0.075431 0.100619
                                        }
                                    }
                                }
                            }
                            JOINT RightHandFore1
                            {
                                OFFSET -0.767344 -0.015991 0.196679
                                CHANNELS 3 Zrotation Yrotation Xrotation
                                JOINT RightHandFore2
                                {
                                    OFFSET -0.194933 -0.087698 0.036149
                                    CHANNELS 3 Zrotation Yrotation Xrotation
                                    JOINT RightHandFore3
                                    {
                                        OFFSET -0.090640 -0.087944 0.028502
                                        CHANNELS 3 Zrotation Yrotation Xrotation
                                        End Site
                                        {
                                            OFFSET -0.093835 -0.164335 0.039444
                                        }
                                    }
                                }
                            }
                            JOINT RightHandMiddle1
                            {
                                OFFSET -0.709887 -0.008302 0.018525
                                CHANNELS 3 Zrotation Yrotation Xrotation
                                JOINT RightHandMiddle2
                                {
                                    OFFSET -0.224640 -0.096249 0.018292
                                    CHANNELS 3 Zrotation Yrotation Xrotation
                                    JOINT RightHandMiddle3
                                    {
                                        OFFSET -0.111334 -0.092707 0.019863
                                        CHANNELS 3 Zrotation Yrotation Xrotation
                                        End Site
                                        {
                                            OFFSET -0.122378 -0.198673 0.034395
                                        }
                                    }
                                }
                            }
                            JOINT RightHandRing1
                            {
                                OFFSET -0.743819 -0.005785 -0.153669
                                CHANNELS 3 Zrotation Yrotation Xrotation
                                JOINT RightHandRing2
                                {
                                    OFFSET -0.318823 -0.149673 -0.026138
                                    CHANNELS 3 Zrotation Yrotation Xrotation
                                    JOINT RightHandRing3
                                    {
                                        OFFSET -0.098490 -0.094126 -0.006716
                                        CHANNELS 3 Zrotation Yrotation Xrotation
                                        End Site
                                        {
                                            OFFSET -0.053032 -0.107703 -0.002821
                                        }
                                    }
                                }
                            }
                            JOINT RightHandLittle1
                            {
                                OFFSET -0.689403 -0.053298 -0.308303
                                CHANNELS 3 Zrotation Yrotation Xrotation
                                JOINT RightHandLittle2
                                {
                                    OFFSET -0.175354 -0.075522 -0.040033
                                    CHANNELS 3 Zrotation Yrotation Xrotation
                                    JOINT RightHandLittle3
                                    {
                                        OFFSET -0.081270 -0.086376 -0.020735
                                        CHANNELS 3 Zrotation Yrotation Xrotation
                                        End Site
                                        {
                                            OFFSET -0.102810 -0.158268 -0.025883
                                        }
                                    }
                                }
                            }
                        }
                    }
                }
            }
        }
    }
    JOINT LeftHip
    {
        OFFSET 0.685143 0.673822 -0.044491
        CHANNELS 3 Zrotation Yrotation Xrotation
        JOINT LeftKnee
        {
            OFFSET 0.085364 -3.750208 0.017676
            CHANNELS 3 Zrotation Yrotation Xrotation
            JOINT LeftAnkle
            {
                OFFSET 0.094583 -4.155206 0.019585
                CHANNELS 3 Zrotation Yrotation Xrotation
                JOINT LeftToe
                {
                    OFFSET -0.000000 -0.395925 0.621478
                    CHANNELS 3 Zrotation Yrotation Xrotation
                    End Site
                    {
                        OFFSET -0.000000 -0.077878 0.321152
                    }
                }
            }
        }
    }
    JOINT RightHip
    {
        OFFSET -0.685143 0.673822 -0.044492
        CHANNELS 3 Zrotation Yrotation Xrotation
        JOINT RightKnee
        {
            OFFSET -0.085364 -3.750208 0.017677
            CHANNELS 3 Zrotation Yrotation Xrotation
            JOINT RightAnkle
            {
                OFFSET -0.094583 -4.155206 0.019585
                CHANNELS 3 Zrotation Yrotation Xrotation
                JOINT RightToe
                {
                    OFFSET -0.000000 -0.395925 0.621478
                    CHANNELS 3 Zrotation Yrotation Xrotation
                    End Site
                    {
                        OFFSET -0.000000 -0.077878 0.321152
                    }
                }
            }
        }
    }
}
MOTION
Frames: 4
Frame Time: 0.033333
-2.908176 7.996806 -9.152550 161.220352 -5.523634 -179.496887 13.005249 32.538708 1.906068 0.209096 -4.884824 -3.555803 -6.537462 19.111771 6.110535 -1.560189 27.872473 14.207697 0.236712 12.973716 0.048739 0.674062 27.565191 0.343950 -0.000000 -0.000002 0.000002 3.536871 0.475081 -5.658348 -0.000018 -0.000003 -0.000001 4.083567 15.336512 17.244806 -5.662755 54.795944 34.537079 -74.020164 8.868991 1.790059 -68.186813 13.435607 1.078484 -65.687851 -6.233702 17.103443 -66.426048 5.372654 -3.753212 -64.716209 10.615001 -1.412422 -66.750305 6.145419 -8.164610 -63.673729 1.963744 2.645562 -64.948601 14.068940 -7.361181 -64.612968 8.747051 -13.374545 -66.518417 -3.251287 4.396340 -62.961895 7.121521 -0.295305 -73.063560 16.262466 -20.674515 12.367601 9.990555 1.031876 64.616570 -10.060967 15.492948 -1.322527 70.424210 -1.881184 -6.501981 12.955033 -35.226009 -0.000003 0.000007 0.000002 20.278820 -10.982657 -3.265803 45.494041 -48.362244 0.901231 74.020020 -8.869596 1.791060 68.025696 11.758129 20.247606 66.251480 -7.585204 3.826946 66.426094 -5.371507 -3.753568 64.648476 12.747100 10.954028 65.692711 8.320548 17.855249 63.673721 -1.963608 2.645545 64.350761 13.061098 -1.952102 65.106651 7.680777 4.171493 66.518394 3.251320 4.396610 57.786186 3.939006 -24.675968 71.168396 15.905834 -8.180149 -0.769601 -1.961313 -27.108732 0.553359 1.066270 54.852390 -12.451985 0.376238 3.911516 0.000004 0.000015 0.000007 -41.149242 -17.935696 -25.020018 -0.360715 -0.900404 43.665100 -1.195570 -1.806843 -16.354498 0.000003 0.000002 0.000003
-2.969927 8.294315 -9.109072 157.935333 -6.664332 -179.356644 13.958962 31.451212 2.402684 -0.100381 -4.703479 -4.178056 -7.376138 20.115982 6.426968 -1.738466 30.509563 14.757940 -3.015713 12.635219 -0.220581 -11.912735 41.916965 -0.138695 0.095135 -29.124556 -0.373562 3.624500 -0.802488 -7.035202 -0.000002 0.000009 0.000002 4.083569 15.336515 17.244806 -5.662755 54.795944 34.537079 -74.020180 8.868995 1.790051 -68.186806 13.435605 1.078485 -65.687851 -6.233709 17.103437 -66.426048 5.372663 -3.753218 -64.716209 10.615006 -1.412427 -66.750305 6.145430 -8.164611 -63.673729 1.963752 2.645551 -64.948601 14.068937 -7.361187 -64.612968 8.747046 -13.374540 -66.518417 -3.251272 4.396335 -62.961899 7.121516 -0.295303 -73.063560 16.262470 -20.674513 9.203139 8.893462 0.735454 57.197891 -22.041521 12.337371 -175.156342 80.781883 -175.885651 -12.509014 9.523103 -45.669895 0.000000 0.000001 0.000008 20.278820 -10.982662 -3.265804 45.494049 -48.362247 0.901234 74.020020 -8.869586 1.791058 68.025696 11.758126 20.247599 66.251480 -7.585199 3.826944 66.426094 -5.371511 -3.753561 64.648476 12.747099 10.954034 65.692711 8.320548 17.855251 63.673710 -1.963597 2.645550 64.350761 13.061096 -1.952109 65.106659 7.680776 4.171496 66.518394 3.251318 4.396612 57.786194 3.939005 -24.675964 71.168388 15.905841 -8.180150 -2.880796 3.554276 -24.851002 0.433181 0.970614 48.099110 -11.451380 -10.968182 19.825775 0.009064 0.038279 -0.309985 -43.919086 -27.201033 -18.683126 -0.208358 -0.707158 32.836319 -1.944565 4.118165 -11.255582 0.000003 0.000010 -0.000008
-2.998234 8.520762 -9.090123 155.330673 -7.876321 -179.194626 13.936131 31.087503 2.781668 -0.561091 -4.623211 -4.769380 -7.590850 20.594578 6.834116 -1.855461 32.166466 15.506191 -6.813149 11.775230 -0.519397 -27.879248 42.811142 -1.617115 0.155470 -35.964458 -0.486330 3.714749 -1.983507 -8.639135 -0.000012 0.000002 -0.000005 4.083566 15.336509 17.244804 -5.662751 54.795940 34.537079 -74.020180 8.868987 1.790052 -68.186806 13.435608 1.078478 -65.687851 -6.233702 17.103445 -66.426056 5.372654 -3.753214 -64.716209 10.615001 -1.412428 -66.750305 6.145431 -8.164615 -63.673721 1.963741 2.645552 -64.948601 14.068935 -7.361183 -64.612968 8.747046 -13.374543 -66.518417 -3.251280 4.396329 -62.961887 7.121521 -0.295302 -73.063560 16.262468 -20.674509 6.981509 8.731107 0.540611 53.480412 -24.460722 5.612546 -177.580795 67.526268 -178.389923 -16.395735 7.690511 -57.428123 -0.000009 -0.000003 0.000001 20.278814 -10.982660 -3.265798 45.494053 -48.362247 0.901226 74.020020 -8.869572 1.791055 68.025696 11.758129 20.247606 66.251480 -7.585205 3.826947 66.426094 -5.371497 -3.753562 64.648476 12.747099 10.954028 65.692703 8.320547 17.855251 63.673729 -1.963584 2.645542 64.350761 13.061096 -1.952105 65.106659 7.680777 4.171495 66.518387 3.251338 4.396605 57.786182 3.939008 -24.675964 71.168388 15.905837 -8.180150 -5.355947 3.229018 -21.942287 0.315989 0.851034 40.736992 -11.557831 -17.103888 34.499081 0.047215 0.225942 -1.827396 -46.515728 -30.455015 -11.895396 -0.095511 -0.489922 22.064943 -0.729370 5.412297 -6.173553 0.000003 0.000005 0.000003
-2.998571 8.569777 -9.110359 153.331604 -9.150345 -179.009537 8.034008 30.638798 4.214662 0.659617 -4.613213 -5.237617 -7.056123 17.051889 8.761071 -1.340992 24.445282 19.245800 -10.256424 11.439440 -0.809704 -42.789680 37.585682 -3.816615 0.096232 -29.271214 -0.375813 3.807238 -2.988837 -10.187036 -0.000015 0.000002 0.000005 4.083565 15.336514 17.244802 -5.662748 54.795940 34.537079 -74.020164 8.868993 1.790049 -68.186806 13.435612 1.078480 -65.687851 -6.233705 17.103441 -66.426033 5.372659 -3.753213 -64.716209 10.615004 -1.412432 -66.750305 6.145425 -8.164610 -63.673710 1.963755 2.645552 -64.948601 14.068940 -7.361181 -64.612968 8.747052 -13.374545 -66.518417 -3.251272 4.396331 -62.961899 7.121521 -0.295302 -73.063568 16.262468 -20.674507 6.029229 9.797451 0.472233 55.368992 -17.556034 0.849988 -177.709824 65.622818 -178.530594 -19.725779 7.404657 -57.704254 -0.000007 0.000003 -0.000013 20.278816 -10.982657 -3.265795 45.494049 -48.362247 0.901230 74.020027 -8.869569 1.791070 68.025696 11.758130 20.247606 66.251480 -7.585204 3.826946 66.426102 -5.371489 -3.753556 64.648476 12.747100 10.954032 65.692711 8.320545 17.855251 63.673729 -1.963580 2.645551 64.350754 13.061096 -1.952105 65.106651 7.680775 4.171499 66.518402 3.251344 4.396614 57.786182 3.939006 -24.675964 71.168388 15.905834 -8.180148 -7.592012 2.267158 -20.992773 0.271577 0.796576 37.649021 -11.895680 -16.345028 36.153755 0.048545 0.233311 -1.876918 -49.127029 -32.036301 -9.982669 -0.089192 -0.474043 21.314171 0.304046 8.784310 -5.966111 0.000001 -0.000009 0.000005
